<svg xmlns="http://www.w3.org/2000/svg" version="1.1" xmlns:xlink="http://www.w3.org/1999/xlink" xmlns:svgjs="http://svgjs.dev/svgjs" width="1500" height="1500" viewBox="0 0 1500 1500"><rect width="1500" height="1500" fill="#000000"></rect><g transform="matrix(0.6666666666666666,0,0,0.6666666666666666,249.39393939393938,438.5856950067477)"><svg viewBox="0 0 396 247" data-background-color="#ffffff" preserveAspectRatio="xMidYMid meet" height="935" width="1500" xmlns="http://www.w3.org/2000/svg" xmlns:xlink="http://www.w3.org/1999/xlink"><g id="tight-bounds" transform="matrix(1,0,0,1,0.2400000000000091,-0.09999999999999432)"><svg viewBox="0 0 395.52 247.2" height="247.2" width="395.52"><g><svg></svg></g><g><svg viewBox="0 0 395.52 247.2" height="247.2" width="395.52"><g transform="matrix(1,0,0,1,120.06861789473682,47.215199999999996)"><svg viewBox="0 0 155.38276421052635 152.7696" height="152.7696" width="155.38276421052635"><g><svg viewBox="0 0 155.38276421052635 152.7696" height="152.7696" width="155.38276421052635"><g><svg viewBox="0 0 155.38276421052635 152.7696" height="152.7696" width="155.38276421052635"><g><svg viewBox="0 0 155.38276421052635 152.7696" height="152.7696" width="155.38276421052635"><g id="textblocktransform"><svg viewBox="0 0 155.38276421052635 152.7696" height="152.7696" width="155.38276421052635" id="textblock"><g><svg viewBox="0 0 155.38276421052635 152.7696" height="152.7696" width="155.38276421052635"><g transform="matrix(1,0,0,1,0,0)"><svg width="155.38276421052635" viewBox="2.75 -37.5 38.65 38" height="152.7696" data-palette-color="#000000"><path d="M8.25 0.5Q5.45 0.5 4.1-1.2 2.75-2.9 2.75-5.4L2.75-5.4 2.75-37.5 7.1-37.5 7.1-8Q7.1-5.8 7.33-4.78 7.55-3.75 8.2-3.4 8.85-3.05 10.3-3.05L10.3-3.05 9.75 0.5 8.25 0.5ZM17.5 0L11.2-24.5 16.05-24.5 19.9-4.85 24.2-23.75 28.35-23.75 32.7-4.85 36.55-24.5 41.4-24.5 35.15 0 30.75 0 26.3-18.15 21.85 0 17.5 0Z" opacity="1" transform="matrix(1,0,0,1,0,0)" fill="#ffffff" class="wordmark-text-0" data-fill-palette-color="primary" id="text-0"></path></svg></g></svg></g></svg></g></svg></g></svg></g></svg></g></svg></g><path d="M302.37 41.215L302.37 0 55.17 0 55.17 247.2 302.37 247.2 302.37 205.985 288.593 205.985 288.593 233.423 68.947 233.423 68.947 13.777 288.593 13.777 288.593 41.215Z" fill="#ffffff" stroke="transparent" data-fill-palette-color="tertiary"></path></svg></g><defs></defs></svg><rect width="395.52" height="247.2" fill="none" stroke="none" visibility="hidden"></rect></g></svg></g></svg>